<svg xmlns="http://www.w3.org/2000/svg" width="980" height="560" viewBox="0 0 980 560">
<rect width="100%" height="100%" fill="white"/>
<text x="82" y="26" font-family="Arial" font-size="18" font-weight="700">Total annual climate damages</text>
<line x1="82" y1="488" x2="948" y2="488" stroke="#222"/>
<line x1="82" y1="42" x2="82" y2="488" stroke="#222"/>
<line x1="82.0" y1="488" x2="82.0" y2="493" stroke="#222"/>
<text x="82.0" y="510" text-anchor="middle" font-family="Arial" font-size="11">2020</text>
<line x1="174.78571428571428" y1="488" x2="174.78571428571428" y2="493" stroke="#222"/>
<text x="174.78571428571428" y="510" text-anchor="middle" font-family="Arial" font-size="11">2050</text>
<line x1="329.42857142857144" y1="488" x2="329.42857142857144" y2="493" stroke="#222"/>
<text x="329.42857142857144" y="510" text-anchor="middle" font-family="Arial" font-size="11">2100</text>
<line x1="638.7142857142858" y1="488" x2="638.7142857142858" y2="493" stroke="#222"/>
<text x="638.7142857142858" y="510" text-anchor="middle" font-family="Arial" font-size="11">2200</text>
<line x1="948.0" y1="488" x2="948.0" y2="493" stroke="#222"/>
<text x="948.0" y="510" text-anchor="middle" font-family="Arial" font-size="11">2300</text>
<line x1="77" y1="488.0" x2="82" y2="488.0" stroke="#222"/>
<text x="72" y="492.0" text-anchor="end" font-family="Arial" font-size="11">-1.636478806971786e13</text>
<line x1="77" y1="376.5" x2="82" y2="376.5" stroke="#222"/>
<text x="72" y="380.5" text-anchor="end" font-family="Arial" font-size="11">4.641436022620442e13</text>
<line x1="82" y1="376.5" x2="948" y2="376.5" stroke="#ddd"/>
<line x1="77" y1="265.0" x2="82" y2="265.0" stroke="#222"/>
<text x="72" y="269.0" text-anchor="end" font-family="Arial" font-size="11">1.091935085221267e14</text>
<line x1="82" y1="265.0" x2="948" y2="265.0" stroke="#ddd"/>
<line x1="77" y1="153.5" x2="82" y2="153.5" stroke="#222"/>
<text x="72" y="157.5" text-anchor="end" font-family="Arial" font-size="11">1.7197265681804897e14</text>
<line x1="82" y1="153.5" x2="948" y2="153.5" stroke="#ddd"/>
<line x1="77" y1="42.0" x2="82" y2="42.0" stroke="#222"/>
<text x="72" y="46.0" text-anchor="end" font-family="Arial" font-size="11">2.3475180511397125e14</text>
<line x1="82" y1="42.0" x2="948" y2="42.0" stroke="#ddd"/>
<text x="515.0" y="538" text-anchor="middle" font-family="Arial" font-size="13">Year</text>
<text transform="translate(23,265.0) rotate(-90)" text-anchor="middle" font-family="Arial" font-size="13">billion 2005 USD per year</text>
<polyline points="82.0,457.24 85.09,457.15 88.19,457.05 91.28,456.94 94.37,456.82 97.46,456.68 100.56,456.49 103.65,456.44 106.74,456.39 109.84,456.34 112.93,456.29 116.02,456.03 119.11,455.89 122.21,455.74 125.3,455.57 128.39,455.39 131.49,455.01 134.58,454.87 137.67,454.72 140.76,454.57 143.86,454.42 146.95,454.25 150.04,454.24 153.14,454.21 156.23,454.15 159.32,454.07 162.41,453.24 165.51,452.69 168.6,452.09 171.69,451.43 174.79,450.72 177.88,450.35 180.97,450.4 184.06,450.4 187.16,450.36 190.25,450.27 193.34,449.49 196.44,449.0 199.53,448.47 202.62,447.91 205.71,447.32 208.81,447.03 211.9,446.82 214.99,446.59 218.09,446.33 221.18,446.02 224.27,445.6 227.36,445.22 230.46,444.81 233.55,444.38 236.64,443.94 239.74,443.88 242.83,443.66 245.92,443.42 249.01,443.16 252.11,442.88 255.2,441.41 258.29,440.1 261.39,438.65 264.48,437.02 267.57,435.2 270.66,434.77 273.76,434.43 276.85,434.07 279.94,433.68 283.04,433.26 286.13,432.37 289.22,431.73 292.31,431.04 295.41,430.29 298.5,429.47 301.59,430.51 304.69,430.87 307.78,431.21 310.87,431.56 313.96,431.93 317.06,431.5 320.15,431.66 323.24,431.8 326.34,431.91 329.43,431.98 332.52,431.4 335.61,430.67 338.71,429.84 341.8,428.93 344.89,427.94 347.99,427.69 351.08,427.2 354.17,426.68 357.26,426.11 360.36,425.48 363.45,426.33 366.54,426.55 369.64,426.76 372.73,426.99 375.82,427.23 378.91,427.24 382.01,427.14 385.1,427.03 388.19,426.89 391.29,426.71 394.38,425.51 397.47,424.37 400.56,423.15 403.66,421.85 406.75,420.47 409.84,417.84 412.94,415.95 416.03,413.94 419.12,411.78 422.21,409.43 425.31,408.89 428.4,408.91 431.49,408.88 434.59,408.8 437.68,408.72 440.77,406.6 443.86,405.4 446.96,404.12 450.05,402.75 453.14,401.26 456.24,400.67 459.33,400.23 462.42,399.69 465.51,399.07 468.61,398.38 471.7,400.37 474.79,401.2 477.89,401.98 480.98,402.72 484.07,403.4 487.16,403.49 490.26,403.57 493.35,403.53 496.44,403.36 499.54,403.12 502.63,402.38 505.72,401.94 508.81,401.5 511.91,401.05 515.0,400.55 518.09,400.38 521.19,400.55 524.28,400.59 527.37,400.51 530.46,400.39 533.56,398.89 536.65,398.81 539.74,398.74 542.84,398.65 545.93,398.51 549.02,396.75 552.11,395.34 555.21,393.73 558.3,391.91 561.39,389.91 564.49,387.81 567.58,386.79 570.67,385.75 573.76,384.68 576.86,383.55 579.95,384.53 583.04,386.26 586.14,387.87 589.23,389.37 592.32,390.73 595.41,390.84 598.51,390.28 601.6,389.65 604.69,388.97 607.79,388.28 610.88,387.69 613.97,388.08 617.06,388.39 620.16,388.59 623.25,388.68 626.34,389.94 629.44,389.32 632.53,388.53 635.62,387.63 638.71,386.64 641.81,387.64 644.9,388.06 647.99,388.46 651.09,388.82 654.18,389.15 657.27,388.73 660.36,387.66 663.46,386.38 666.55,384.87 669.64,383.11 672.74,380.99 675.83,379.85 678.92,378.64 682.01,377.35 685.11,375.99 688.2,374.97 691.29,374.6 694.39,374.16 697.48,373.62 700.57,372.95 703.66,373.61 706.76,374.83 709.85,375.9 712.94,376.88 716.04,377.78 719.13,376.74 722.22,374.69 725.31,372.5 728.41,370.16 731.5,367.59 734.59,363.43 737.69,357.85 740.78,351.73 743.87,345.05 746.96,337.76 750.06,339.95 753.15,341.1 756.24,342.21 759.34,343.24 762.43,344.17 765.52,344.93 768.61,345.0 771.71,344.9 774.8,344.7 777.89,344.43 780.99,343.28 784.08,344.48 787.17,345.64 790.26,346.76 793.36,347.83 796.45,347.19 799.54,347.86 802.64,348.37 805.73,348.73 808.82,348.98 811.91,347.69 815.01,344.39 818.1,340.88 821.19,337.15 824.29,333.17 827.38,328.7 830.47,326.71 833.56,324.57 836.66,322.23 839.75,319.65 842.84,315.26 845.94,313.28 849.03,311.24 852.12,309.19 855.21,307.1 858.31,303.8 861.4,301.86 864.49,299.77 867.59,297.45 870.68,294.86 873.77,287.44 876.86,279.14 879.96,269.97 883.05,259.86 886.14,248.72 889.24,245.28 892.33,241.9 895.42,238.21 898.51,234.16 901.61,229.63 904.7,235.65 907.79,238.31 910.89,240.74 913.98,243.07 917.07,245.28 920.16,246.58 923.26,246.27 926.35,245.89 929.44,245.36 932.54,244.59 935.63,251.47 938.72,256.15 941.81,260.2 944.91,263.78 948.0,266.96" fill="none" stroke="#345995" stroke-width="2.2"/>
<polyline points="82.0,457.24 85.09,457.15 88.19,457.05 91.28,456.94 94.37,456.82 97.46,456.68 100.56,456.49 103.65,456.44 106.74,456.39 109.84,456.34 112.93,456.29 116.02,456.03 119.11,455.89 122.21,455.74 125.3,455.57 128.39,455.39 131.49,455.01 134.58,454.87 137.67,454.72 140.76,454.57 143.86,454.42 146.95,454.25 150.04,454.24 153.14,454.21 156.23,454.15 159.32,454.07 162.41,453.24 165.51,452.69 168.6,452.09 171.69,451.43 174.79,450.72 177.88,450.35 180.97,450.4 184.06,450.4 187.16,450.36 190.25,450.27 193.34,449.49 196.44,448.99 199.53,448.47 202.62,447.9 205.71,447.32 208.81,447.03 211.9,446.82 214.99,446.59 218.09,446.33 221.18,446.02 224.27,445.59 227.36,445.22 230.46,444.81 233.55,444.37 236.64,443.93 239.74,443.87 242.83,443.65 245.92,443.42 249.01,443.16 252.11,442.88 255.2,441.4 258.29,440.1 261.39,438.64 264.48,437.01 267.57,435.2 270.66,434.77 273.76,434.43 276.85,434.06 279.94,433.67 283.04,433.25 286.13,432.36 289.22,431.72 292.31,431.03 295.41,430.28 298.5,429.46 301.59,430.5 304.69,430.86 307.78,431.2 310.87,431.56 313.96,431.92 317.06,431.49 320.15,431.65 323.24,431.79 326.34,431.9 329.43,431.96 332.52,431.39 335.61,430.65 338.71,429.83 341.8,428.92 344.89,427.93 347.99,427.67 351.08,427.18 354.17,426.66 357.26,426.09 360.36,425.46 363.45,426.31 366.54,426.53 369.64,426.74 372.73,426.97 375.82,427.21 378.91,427.22 382.01,427.12 385.1,427.01 388.19,426.87 391.29,426.69 394.38,425.49 397.47,424.35 400.56,423.12 403.66,421.82 406.75,420.44 409.84,417.81 412.94,415.92 416.03,413.91 419.12,411.75 422.21,409.39 425.31,408.85 428.4,408.88 431.49,408.84 434.59,408.76 437.68,408.68 440.77,406.56 443.86,405.36 446.96,404.08 450.05,402.7 453.14,401.21 456.24,400.62 459.33,400.18 462.42,399.64 465.51,399.02 468.61,398.33 471.7,400.32 474.79,401.15 477.89,401.93 480.98,402.67 484.07,403.35 487.16,403.44 490.26,403.52 493.35,403.48 496.44,403.3 499.54,403.07 502.63,402.32 505.72,401.89 508.81,401.44 511.91,400.99 515.0,400.49 518.09,400.32 521.19,400.49 524.28,400.53 527.37,400.45 530.46,400.33 533.56,398.83 536.65,398.74 539.74,398.67 542.84,398.58 545.93,398.45 549.02,396.68 552.11,395.27 555.21,393.66 558.3,391.84 561.39,389.83 564.49,387.73 567.58,386.71 570.67,385.67 573.76,384.6 576.86,383.47 579.95,384.45 583.04,386.17 586.14,387.79 589.23,389.28 592.32,390.64 595.41,390.76 598.51,390.19 601.6,389.57 604.69,388.89 607.79,388.19 610.88,387.6 613.97,387.99 617.06,388.3 620.16,388.5 623.25,388.59 626.34,389.85 629.44,389.23 632.53,388.44 635.62,387.54 638.71,386.54 641.81,387.54 644.9,387.97 647.99,388.36 651.09,388.73 654.18,389.05 657.27,388.63 660.36,387.56 663.46,386.28 666.55,384.76 669.64,383.01 672.74,380.88 675.83,379.74 678.92,378.52 682.01,377.23 685.11,375.87 688.2,374.85 691.29,374.48 694.39,374.04 697.48,373.5 700.57,372.83 703.66,373.49 706.76,374.71 709.85,375.77 712.94,376.76 716.04,377.66 719.13,376.61 722.22,374.56 725.31,372.37 728.41,370.02 731.5,367.45 734.59,363.28 737.69,357.69 740.78,351.57 743.87,344.87 746.96,337.57 750.06,339.76 753.15,340.92 756.24,342.02 759.34,343.05 762.43,343.98 765.52,344.74 768.61,344.81 771.71,344.72 774.8,344.52 777.89,344.24 780.99,343.09 784.08,344.29 787.17,345.46 790.26,346.58 793.36,347.64 796.45,347.01 799.54,347.67 802.64,348.18 805.73,348.54 808.82,348.79 811.91,347.5 815.01,344.19 818.1,340.67 821.19,336.93 824.29,332.95 827.38,328.47 830.47,326.47 833.56,324.33 836.66,321.98 839.75,319.4 842.84,315.0 845.94,313.02 849.03,310.97 852.12,308.92 855.21,306.82 858.31,303.52 861.4,301.57 864.49,299.48 867.59,297.15 870.68,294.55 873.77,287.12 876.86,278.8 879.96,269.62 883.05,259.49 886.14,248.33 889.24,244.87 892.33,241.49 895.42,237.79 898.51,233.73 901.61,229.19 904.7,235.22 907.79,237.88 910.89,240.32 913.98,242.65 917.07,244.86 920.16,246.16 923.26,245.85 926.35,245.46 929.44,244.93 932.54,244.16 935.63,251.05 938.72,255.74 941.81,259.79 944.91,263.37 948.0,266.56" fill="none" stroke="#03CEA4" stroke-width="2.2"/>
<polyline points="82.0,457.24 85.09,457.15 88.19,457.05 91.28,456.94 94.37,456.82 97.46,456.68 100.56,456.49 103.65,456.44 106.74,456.39 109.84,456.34 112.93,456.29 116.02,456.03 119.11,455.89 122.21,455.74 125.3,455.57 128.39,455.39 131.49,455.01 134.58,454.87 137.67,454.72 140.76,454.57 143.86,454.41 146.95,454.25 150.04,454.23 153.14,454.21 156.23,454.14 159.32,454.06 162.41,453.22 165.51,452.68 168.6,452.07 171.69,451.41 174.79,450.7 177.88,450.33 180.97,450.38 184.06,450.38 187.16,450.34 190.25,450.24 193.34,449.47 196.44,448.96 199.53,448.43 202.62,447.87 205.71,447.28 208.81,446.99 211.9,446.78 214.99,446.54 218.09,446.28 221.18,445.97 224.27,445.54 227.36,445.16 230.46,444.74 233.55,444.31 236.64,443.86 239.74,443.8 242.83,443.58 245.92,443.34 249.01,443.08 252.11,442.79 255.2,441.3 258.29,439.99 261.39,438.53 264.48,436.89 267.57,435.06 270.66,434.62 273.76,434.28 276.85,433.91 279.94,433.51 283.04,433.09 286.13,432.18 289.22,431.53 292.31,430.84 295.41,430.08 298.5,429.24 301.59,430.29 304.69,430.65 307.78,430.99 310.87,431.34 313.96,431.7 317.06,431.27 320.15,431.42 323.24,431.56 326.34,431.66 329.43,431.73 332.52,431.14 335.61,430.4 338.71,429.56 341.8,428.61 344.89,427.56 347.99,427.28 351.08,426.78 354.17,426.25 357.26,425.67 360.36,425.02 363.45,425.88 366.54,426.09 369.64,426.31 372.73,426.53 375.82,426.78 378.91,426.78 382.01,426.67 385.1,426.55 388.19,426.41 391.29,426.22 394.38,425.0 397.47,423.83 400.56,422.58 403.66,421.25 406.75,419.84 409.84,417.17 412.94,415.24 416.03,413.19 419.12,410.99 422.21,408.58 425.31,408.03 428.4,408.05 431.49,408.0 434.59,407.91 437.68,407.82 440.77,405.66 443.86,404.43 446.96,403.12 450.05,401.71 453.14,400.19 456.24,399.58 459.33,399.12 462.42,398.56 465.51,397.92 468.61,397.21 471.7,399.21 474.79,400.04 477.89,400.83 480.98,401.57 484.07,402.24 487.16,402.32 490.26,402.4 493.35,402.34 496.44,402.15 499.54,401.9 502.63,401.13 505.72,400.68 508.81,400.22 511.91,399.74 515.0,399.22 518.09,399.03 521.19,399.19 524.28,399.23 527.37,399.14 530.46,399.01 533.56,397.48 536.65,397.38 539.74,397.29 542.84,397.19 545.93,397.03 549.02,395.22 552.11,393.76 555.21,392.1 558.3,390.22 561.39,388.16 564.49,386.01 567.58,384.95 570.67,383.87 573.76,382.76 576.86,381.59 579.95,382.57 583.04,384.32 586.14,385.95 589.23,387.46 592.32,388.83 595.41,388.94 598.51,388.35 601.6,387.7 604.69,386.99 607.79,386.27 610.88,385.66 613.97,386.05 617.06,386.35 620.16,386.55 623.25,386.64 626.34,387.91 629.44,387.27 632.53,386.46 635.62,385.53 638.71,384.5 641.81,385.51 644.9,385.92 647.99,386.31 651.09,386.66 654.18,386.98 657.27,386.53 660.36,385.41 663.46,384.08 666.55,382.5 669.64,380.68 672.74,378.49 675.83,377.3 678.92,376.04 682.01,374.69 685.11,373.27 688.2,372.2 691.29,371.81 694.39,371.33 697.48,370.76 700.57,370.05 703.66,370.73 706.76,371.98 709.85,373.08 712.94,374.08 716.04,375.0 719.13,373.9 722.22,371.77 725.31,369.5 728.41,367.06 731.5,364.39 734.59,360.07 737.69,354.28 740.78,347.95 743.87,341.02 746.96,333.46 750.06,335.69 753.15,336.86 756.24,337.98 759.34,339.02 762.43,339.96 765.52,340.74 768.61,340.8 771.71,340.7 774.8,340.49 777.89,340.2 780.99,338.99 784.08,340.2 787.17,341.38 790.26,342.5 793.36,343.57 796.45,342.89 799.54,343.55 802.64,344.05 805.73,344.4 808.82,344.63 811.91,343.26 815.01,339.81 818.1,336.14 821.19,332.24 824.29,328.08 827.38,323.41 830.47,321.31 833.56,319.05 836.66,316.59 839.75,313.88 842.84,309.31 845.94,307.24 849.03,305.09 852.12,302.93 855.21,300.73 858.31,297.28 861.4,295.24 864.49,293.03 867.59,290.59 870.68,287.87 873.77,280.12 876.86,271.44 879.96,261.87 883.05,251.3 886.14,239.65 889.24,236.02 892.33,232.45 895.42,228.56 898.51,224.29 901.61,219.53 904.7,225.75 907.79,228.5 910.89,231.0 913.98,233.4 917.07,235.65 920.16,236.95 923.26,236.58 926.35,236.14 929.44,235.54 932.54,234.7 935.63,241.83 938.72,246.68 941.81,250.87 944.91,254.57 948.0,257.85" fill="none" stroke="#FB4D3D" stroke-width="2.2"/>
<polyline points="82.0,457.24 85.09,457.15 88.19,457.05 91.28,456.94 94.37,456.82 97.46,456.68 100.56,456.49 103.65,456.44 106.74,456.39 109.84,456.34 112.93,456.29 116.02,456.03 119.11,455.89 122.21,455.74 125.3,455.57 128.39,455.38 131.49,455.0 134.58,454.86 137.67,454.71 140.76,454.56 143.86,454.4 146.95,454.23 150.04,454.22 153.14,454.16 156.23,454.09 159.32,454.01 162.41,453.16 165.51,452.61 168.6,451.99 171.69,451.32 174.79,450.59 177.88,450.21 180.97,450.25 184.06,450.25 187.16,450.2 190.25,450.09 193.34,449.3 196.44,448.78 199.53,448.23 202.62,447.65 205.71,447.04 208.81,446.73 211.9,446.51 214.99,446.26 218.09,445.97 221.18,445.65 224.27,445.2 227.36,444.8 230.46,444.36 233.55,443.9 236.64,443.43 239.74,443.35 242.83,443.11 245.92,442.85 249.01,442.56 252.11,442.25 255.2,440.71 258.29,439.34 261.39,437.81 264.48,436.11 267.57,434.2 270.66,433.73 273.76,433.34 276.85,432.93 279.94,432.5 283.04,432.03 286.13,431.07 289.22,430.37 292.31,429.62 295.41,428.81 298.5,427.91 301.59,428.97 304.69,429.32 307.78,429.65 310.87,430.0 313.96,430.33 317.06,429.81 320.15,429.9 323.24,429.98 326.34,430.02 329.43,430.01 332.52,429.3 335.61,428.42 338.71,427.44 341.8,426.36 344.89,425.19 347.99,424.85 351.08,424.27 354.17,423.66 357.26,423.0 360.36,422.27 363.45,423.15 366.54,423.36 369.64,423.56 372.73,423.78 375.82,424.01 378.91,423.98 382.01,423.82 385.1,423.65 388.19,423.45 391.29,423.21 394.38,421.84 397.47,420.53 400.56,419.12 403.66,417.62 406.75,416.02 409.84,413.07 412.94,410.9 416.03,408.59 419.12,406.11 422.21,403.41 425.31,402.76 428.4,402.72 431.49,402.6 434.59,402.45 437.68,402.28 440.77,399.87 443.86,398.45 446.96,396.94 450.05,395.32 453.14,393.58 456.24,392.84 459.33,392.27 462.42,391.58 465.51,390.81 468.61,389.96 471.7,392.06 474.79,392.91 477.89,393.69 480.98,394.43 484.07,395.1 487.16,395.1 490.26,395.11 493.35,394.97 496.44,394.69 499.54,394.35 502.63,393.43 505.72,392.85 508.81,392.25 511.91,391.63 515.0,390.95 518.09,390.67 521.19,390.78 524.28,390.76 527.37,390.6 530.46,390.4 533.56,388.65 536.65,388.47 539.74,388.29 542.84,388.08 545.93,387.81 549.02,385.65 552.11,383.88 555.21,381.89 558.3,379.65 561.39,377.19 564.49,374.71 567.58,373.42 570.67,372.1 573.76,370.73 576.86,369.29 579.95,370.29 583.04,372.15 586.14,373.89 589.23,375.49 592.32,376.95 595.41,376.97 598.51,376.22 601.6,375.4 604.69,374.51 607.79,373.6 610.88,372.87 613.97,373.26 617.06,373.54 620.16,373.7 623.25,373.74 626.34,375.12 629.44,374.34 632.53,373.37 635.62,372.24 638.71,371.0 641.81,372.04 644.9,372.41 647.99,372.73 651.09,373.02 654.18,373.26 657.27,372.6 660.36,371.17 663.46,369.49 666.55,367.53 669.64,365.28 672.74,362.64 675.83,361.14 678.92,359.53 682.01,357.82 685.11,356.0 688.2,354.63 691.29,354.03 694.39,353.34 697.48,352.53 700.57,351.58 703.66,352.38 706.76,353.85 709.85,355.12 712.94,356.28 716.04,357.31 719.13,355.86 722.22,353.19 725.31,350.35 728.41,347.31 731.5,344.01 734.59,338.65 737.69,331.57 740.78,323.81 743.87,315.32 746.96,306.03 750.06,308.54 753.15,309.8 756.24,310.99 759.34,312.1 762.43,313.09 765.52,313.95 768.61,314.0 771.71,313.85 774.8,313.55 777.89,313.15 780.99,311.57 784.08,312.84 787.17,314.06 790.26,315.23 793.36,316.32 796.45,315.34 799.54,315.95 802.64,316.4 805.73,316.66 808.82,316.8 811.91,314.89 815.01,310.48 818.1,305.78 821.19,300.77 824.29,295.43 827.38,289.53 830.47,286.69 833.56,283.66 836.66,280.39 839.75,276.83 842.84,271.12 845.94,268.42 849.03,265.61 852.12,262.75 855.21,259.8 858.31,255.39 861.4,252.66 864.49,249.72 867.59,246.5 870.68,242.96 873.77,233.05 876.86,221.98 879.96,209.76 883.05,196.25 886.14,181.35 889.24,176.5 892.33,171.7 895.42,166.49 898.51,160.81 901.61,154.53 904.7,162.09 907.79,165.38 910.89,168.36 913.98,171.14 917.07,173.71 920.16,175.02 923.26,174.26 926.35,173.39 929.44,172.34 932.54,171.01 935.63,179.77 938.72,185.72 941.81,190.83 944.91,195.3 948.0,199.2" fill="none" stroke="#7A5195" stroke-width="2.2"/>
<polyline points="82.0,457.24 85.09,457.15 88.19,457.05 91.28,456.94 94.37,456.82 97.46,456.68 100.56,456.49 103.65,456.44 106.74,456.39 109.84,456.34 112.93,456.28 116.02,456.03 119.11,455.89 122.21,455.73 125.3,455.56 128.39,455.37 131.49,454.99 134.58,454.85 137.67,454.7 140.76,454.54 143.86,454.38 146.95,454.21 150.04,454.18 153.14,454.11 156.23,454.04 159.32,453.95 162.41,453.09 165.51,452.52 168.6,451.89 171.69,451.21 174.79,450.46 177.88,450.07 180.97,450.1 184.06,450.09 187.16,450.03 190.25,449.91 193.34,449.09 196.44,448.55 199.53,447.98 202.62,447.38 205.71,446.74 208.81,446.42 211.9,446.17 214.99,445.9 218.09,445.6 221.18,445.25 224.27,444.77 227.36,444.35 230.46,443.89 233.55,443.4 236.64,442.9 239.74,442.8 242.83,442.53 245.92,442.24 249.01,441.93 252.11,441.58 255.2,439.97 258.29,438.53 261.39,436.92 264.48,435.13 267.57,433.13 270.66,432.61 273.76,432.18 276.85,431.72 279.94,431.23 283.04,430.7 286.13,429.67 289.22,428.91 292.31,428.09 295.41,427.18 298.5,426.14 301.59,427.15 304.69,427.41 307.78,427.66 310.87,427.93 313.96,428.22 317.06,427.63 320.15,427.67 323.24,427.7 326.34,427.7 329.43,427.63 332.52,426.82 335.61,425.82 338.71,424.71 341.8,423.48 344.89,422.15 347.99,421.73 351.08,421.06 354.17,420.35 357.26,419.58 360.36,418.73 363.45,419.64 366.54,419.84 369.64,420.03 372.73,420.23 375.82,420.45 378.91,420.36 382.01,420.14 385.1,419.9 388.19,419.63 391.29,419.31 394.38,417.75 397.47,416.24 400.56,414.62 403.66,412.89 406.75,411.06 409.84,407.74 412.94,405.26 416.03,402.61 419.12,399.76 422.21,396.66 425.31,395.88 428.4,395.76 431.49,395.56 434.59,395.3 437.68,395.02 440.77,392.29 443.86,390.63 446.96,388.85 450.05,386.95 453.14,384.9 456.24,383.99 459.33,383.26 462.42,382.41 465.51,381.45 468.61,380.41 471.7,382.64 474.79,383.5 477.89,384.28 480.98,385.01 484.07,385.66 487.16,385.57 490.26,385.47 493.35,385.22 496.44,384.83 499.54,384.34 502.63,383.23 505.72,382.47 508.81,381.69 511.91,380.87 515.0,379.98 518.09,379.57 521.19,379.61 524.28,379.5 527.37,379.26 530.46,378.95 533.56,376.91 536.65,376.61 539.74,376.3 542.84,375.94 545.93,375.52 549.02,372.9 552.11,370.72 555.21,368.27 558.3,365.55 561.39,362.56 564.49,359.63 567.58,358.03 570.67,356.39 573.76,354.67 576.86,352.85 579.95,353.89 583.04,355.89 586.14,357.76 589.23,359.49 592.32,361.06 595.41,360.98 598.51,360.01 601.6,358.96 604.69,357.83 607.79,356.65 610.88,355.76 613.97,356.14 617.06,356.4 620.16,356.52 623.25,356.49 626.34,358.01 629.44,357.05 632.53,355.85 635.62,354.48 638.71,352.95 641.81,354.03 644.9,354.33 647.99,354.57 651.09,354.77 654.18,354.92 657.27,353.98 660.36,352.14 663.46,350.0 666.55,347.53 669.64,344.71 672.74,341.47 675.83,339.55 678.92,337.5 682.01,335.3 685.11,332.97 688.2,331.2 691.29,330.33 694.39,329.35 697.48,328.24 700.57,326.98 703.66,327.94 706.76,329.7 709.85,331.22 712.94,332.58 716.04,333.78 719.13,331.87 722.22,328.5 725.31,324.92 728.41,321.09 731.5,316.95 734.59,310.24 737.69,301.45 740.78,291.82 743.87,281.27 746.96,269.73 750.06,272.62 753.15,274.01 756.24,275.32 759.34,276.54 762.43,277.63 765.52,278.63 768.61,278.67 771.71,278.47 774.8,278.1 777.89,277.57 780.99,275.53 784.08,276.91 787.17,278.21 790.26,279.45 793.36,280.61 796.45,279.27 799.54,279.85 802.64,280.25 805.73,280.44 808.82,280.48 811.91,277.91 815.01,272.28 818.1,266.28 821.19,259.87 824.29,253.02 827.38,245.57 830.47,241.83 833.56,237.85 836.66,233.58 839.75,228.97 842.84,221.85 845.94,218.4 849.03,214.79 852.12,211.09 855.21,207.24 858.31,201.66 861.4,198.11 864.49,194.3 867.59,190.16 870.68,185.64 873.77,173.07 876.86,159.03 879.96,143.52 883.05,126.38 886.14,107.44 889.24,101.16 892.33,94.92 895.42,88.17 898.51,80.82 901.61,72.76 904.7,82.11 907.79,86.21 910.89,89.9 913.98,93.3 917.07,96.38 920.16,97.83 923.26,96.7 926.35,95.42 929.44,93.93 932.54,92.13 935.63,103.02 938.72,110.44 941.81,116.82 944.91,122.35 948.0,127.23" fill="none" stroke="#F5A623" stroke-width="2.2"/>
<rect x="92" y="512" width="12" height="12" fill="#345995"/>
<text x="110" y="523" font-family="Arial" font-size="11">baseline</text>
<rect x="382" y="512" width="12" height="12" fill="#03CEA4"/>
<text x="400" y="523" font-family="Arial" font-size="11">feedback-residual-medium</text>
<rect x="672" y="512" width="12" height="12" fill="#FB4D3D"/>
<text x="690" y="523" font-family="Arial" font-size="11">feedback-residual-high</text>
<rect x="92" y="532" width="12" height="12" fill="#7A5195"/>
<text x="110" y="543" font-family="Arial" font-size="11">feedback-resfire-half-gross</text>
<rect x="382" y="532" width="12" height="12" fill="#F5A623"/>
<text x="400" y="543" font-family="Arial" font-size="11">feedback-resfire-gross</text>
</svg>
