<svg xmlns="http://www.w3.org/2000/svg" viewBox="0 0 900 520">
<rect width="100%" height="100%" fill="white"/>
<style>text{font-family:Arial,Helvetica,sans-serif;fill:#222}.small{font-size:12px}.tick{font-size:13px}.title{font-size:18px;font-weight:600}</style>
<text x="450.0" y="28" text-anchor="middle" class="title">Published maize response to SSP5-8.5 minus SSP1-2.6 weather, 2092–2100</text>
<text x="450.0" y="49" text-anchor="middle" class="small" fill="#555">Fixed practice; coefficient transport, not damage or SCC</text>
<line x1="80" x2="870" y1="430.00" y2="430.00" stroke="#dddddd" stroke-width="1"/>
<text x="70" y="434.00" text-anchor="end" class="tick">-6</text>
<line x1="80" x2="870" y1="340.00" y2="340.00" stroke="#dddddd" stroke-width="1"/>
<text x="70" y="344.00" text-anchor="end" class="tick">-4</text>
<line x1="80" x2="870" y1="250.00" y2="250.00" stroke="#dddddd" stroke-width="1"/>
<text x="70" y="254.00" text-anchor="end" class="tick">-2</text>
<line x1="80" x2="870" y1="160.00" y2="160.00" stroke="#dddddd" stroke-width="1"/>
<text x="70" y="164.00" text-anchor="end" class="tick">0</text>
<line x1="80" x2="870" y1="70.00" y2="70.00" stroke="#dddddd" stroke-width="1"/>
<text x="70" y="74.00" text-anchor="end" class="tick">2</text>
<line x1="80" x2="870" y1="160.00" y2="160.00" stroke="#111" stroke-width="1.3"/>
<text x="159.00" y="458" text-anchor="middle" class="tick">GFDL</text>
<rect x="103.00" y="160.00" width="34" height="160.76" fill="#34495e"/>
<rect x="142.00" y="160.00" width="34" height="132.03" fill="#d35400"/>
<rect x="181.00" y="160.00" width="34" height="29.61" fill="#2e86c1"/>
<text x="317.00" y="458" text-anchor="middle" class="tick">IPSL</text>
<rect x="261.00" y="160.00" width="34" height="134.91" fill="#34495e"/>
<rect x="300.00" y="160.00" width="34" height="116.19" fill="#d35400"/>
<rect x="339.00" y="160.00" width="34" height="19.24" fill="#2e86c1"/>
<text x="475.00" y="458" text-anchor="middle" class="tick">MPI</text>
<rect x="419.00" y="160.00" width="34" height="116.12" fill="#34495e"/>
<rect x="458.00" y="160.00" width="34" height="187.51" fill="#d35400"/>
<rect x="497.00" y="85.50" width="34" height="74.50" fill="#2e86c1"/>
<text x="633.00" y="458" text-anchor="middle" class="tick">MRI</text>
<rect x="577.00" y="160.00" width="34" height="72.56" fill="#34495e"/>
<rect x="616.00" y="160.00" width="34" height="89.12" fill="#d35400"/>
<rect x="655.00" y="143.11" width="34" height="16.89" fill="#2e86c1"/>
<text x="791.00" y="458" text-anchor="middle" class="tick">UKESM</text>
<rect x="735.00" y="160.00" width="34" height="91.20" fill="#34495e"/>
<rect x="774.00" y="160.00" width="34" height="45.87" fill="#d35400"/>
<rect x="813.00" y="160.00" width="34" height="45.81" fill="#2e86c1"/>
<text transform="translate(20 250.0) rotate(-90)" text-anchor="middle" class="tick">Area-weighted mean yield change (%)</text>
<rect x="180" y="484" width="14" height="14" fill="#34495e"/>
<text x="201" y="495" class="small">Net precipitation</text>
<rect x="415" y="484" width="14" height="14" fill="#d35400"/>
<text x="436" y="495" class="small">Quantity path</text>
<rect x="650" y="484" width="14" height="14" fill="#2e86c1"/>
<text x="671" y="495" class="small">Timing / distribution</text>
</svg>
